<svg width="425" height="447" viewBox="0 0 425 447" fill="none" xmlns="http://www.w3.org/2000/svg">
<path opacity="0.7" d="M389 417C383 345 284.5 307.846 196.748 318.849C111.594 329.526 84.951 385.646 117.456 394.618C138.5 400.427 173.138 362.367 166.07 307.846C159.002 253.326 75.4091 248.027 50.8149 272.838C26.2207 297.649 73.3462 334.837 90.8325 300.382C109.92 262.771 103.349 174.228 42.6236 178.963C34.2646 189.467 26.1228 212.532 60.4273 220.756C103.308 231.036 171.388 147.838 154.882 75.615C138.375 3.39211 42.6236 38.5 67.02 109.507" stroke="#A64CED" stroke-width="70"/>
<rect opacity="0.7" x="121.97" y="129.222" width="169.189" height="339.449" rx="32.1245" transform="rotate(-17.1923 121.97 129.222)" fill="black"/>
<g clip-path="url(#clip0_1_8347)">
<rect x="128.667" y="132.754" width="158.481" height="328.741" rx="26.7704" transform="rotate(-17.1923 128.667 132.754)" fill="white"/>
<g clip-path="url(#clip1_1_8347)">
<rect x="160.42" y="199.151" width="137.065" height="113.507" rx="21.4163" transform="rotate(-17.1923 160.42 199.151)" fill="#F9F9F9"/>
<path opacity="0.7" d="M190.782 282.791L211.242 276.461" stroke="#2FDBBC" stroke-width="128.498" stroke-linecap="round"/>
<circle cx="190.375" cy="258.608" r="2.67704" transform="rotate(7.33967 190.375 258.608)" fill="black"/>
<circle cx="213.225" cy="257.232" r="2.67704" transform="rotate(7.33967 213.225 257.232)" fill="black"/>
<path d="M203.764 282.242C206.569 283.418 212.313 281.734 208.368 276.23C217.063 273.539 208.235 266.743 203.025 270.52" stroke="black" stroke-width="2.14163" stroke-linecap="round" stroke-linejoin="round"/>
<path d="M266.824 275.703C270.443 275.158 272.924 273.863 274.246 272.402M265.134 266.677C274.285 264.926 277.24 269.092 274.246 272.402M243.709 295.314C257.489 310.934 257.752 275.998 257.503 268.321C257.254 260.645 256.103 246.711 262.406 247.205C267.449 247.601 265.981 255.472 264.953 261.094C265.981 255.472 268.383 246.295 272.199 247.586C277.849 249.498 274.167 258.004 271.969 262.034M268.532 263.772C271.496 261.813 278.72 259.11 281.116 264.062C282.433 266.784 281.15 268.819 279.22 270.217M274.246 272.402C275.622 272.083 277.638 271.364 279.22 270.217M279.22 270.217C281.723 282.775 280.943 301.79 274.305 312.484C267.666 323.177 255.669 326.594 252.405 326.467" stroke="black" stroke-width="2.14163" stroke-linecap="round" stroke-linejoin="round"/>
<circle cx="267.996" cy="220.79" r="5.35409" transform="rotate(-17.1923 267.996 220.79)" stroke="black" stroke-width="2.14163"/>
<circle cx="301.268" cy="201.529" r="5.35409" transform="rotate(-17.1923 301.268 201.529)" stroke="black" stroke-width="2.14163"/>
<path d="M273.148 217.515L295.958 204.293M266.256 215.164L260.779 186.594" stroke="black" stroke-width="2.14163" stroke-linecap="round" stroke-linejoin="round"/>
<path d="M252.51 185.229L269.596 186.108" stroke="black" stroke-width="2.14163" stroke-linecap="round" stroke-linejoin="round"/>
</g>
<g clip-path="url(#clip2_1_8347)">
<rect x="151.241" y="169.485" width="25.6996" height="25.6996" rx="12.8498" transform="rotate(-17.1923 151.241 169.485)" fill="#DAFAF4"/>
<rect opacity="0.7" x="155.039" y="181.76" width="25.6996" height="19.2747" rx="9.63735" transform="rotate(-17.1923 155.039 181.76)" fill="#2FDBBC"/>
<circle cx="166.815" cy="185.403" r="0.535409" transform="rotate(-17.1923 166.815 185.403)" fill="black"/>
<circle cx="171.93" cy="183.82" r="0.535409" transform="rotate(-17.1923 171.93 183.82)" fill="black"/>
</g>
<g clip-path="url(#clip3_1_8347)">
<rect x="211.378" y="363.849" width="25.6996" height="25.6996" rx="12.8498" transform="rotate(-17.1923 211.378 363.849)" fill="#FFF5EB"/>
<rect opacity="0.7" x="215.176" y="376.125" width="25.6996" height="19.2747" rx="9.63735" transform="rotate(-17.1923 215.176 376.125)" fill="#FDC280"/>
<circle cx="226.952" cy="379.767" r="0.535409" transform="rotate(-17.1923 226.952 379.767)" fill="black"/>
<circle cx="232.067" cy="378.185" r="0.535409" transform="rotate(-17.1923 232.067 378.185)" fill="black"/>
<circle cx="226.952" cy="379.767" r="1.39206" transform="rotate(-17.1923 226.952 379.767)" stroke="black" stroke-width="0.428327"/>
<circle cx="232.067" cy="378.185" r="1.39206" transform="rotate(-17.1923 232.067 378.185)" stroke="black" stroke-width="0.428327"/>
<path d="M228.486 379.293L230.532 378.66" stroke="black" stroke-width="0.428327" stroke-linecap="round" stroke-linejoin="round"/>
</g>
<path d="M187.691 175.928L187.38 174.921L189.958 174.124C190.449 173.972 190.789 173.709 190.979 173.337C191.166 172.956 191.196 172.561 191.069 172.152C190.983 171.874 190.845 171.643 190.654 171.46C190.46 171.269 190.224 171.145 189.946 171.087C189.677 171.027 189.386 171.045 189.075 171.142L186.461 171.951L186.149 170.944L188.592 170.188C189.001 170.061 189.292 169.855 189.463 169.569C189.64 169.272 189.665 168.919 189.539 168.51C189.412 168.101 189.189 167.829 188.87 167.694C188.548 167.552 188.178 167.545 187.761 167.675L185.367 168.415L185.055 167.409L187.474 166.66C188.03 166.488 188.524 166.447 188.956 166.538C189.393 166.618 189.756 166.792 190.046 167.062C190.344 167.328 190.553 167.658 190.675 168.051C190.816 168.509 190.814 168.949 190.666 169.371C190.527 169.791 190.247 170.174 189.824 170.52L189.809 170.121C190.418 170.148 190.936 170.315 191.363 170.622C191.795 170.919 192.095 171.337 192.262 171.877C192.401 172.327 192.416 172.767 192.307 173.195C192.197 173.624 191.968 174.013 191.619 174.363C191.276 174.702 190.805 174.964 190.208 175.149L187.691 175.928ZM186.918 176.167L184.282 167.648L185.436 167.291L188.072 175.81L186.918 176.167ZM196.752 173.259C196.278 173.406 195.815 173.432 195.365 173.338C194.92 173.234 194.532 173.022 194.2 172.703C193.868 172.385 193.624 171.972 193.467 171.464L192.418 168.076L193.523 167.734L194.556 171.073C194.655 171.392 194.794 171.654 194.974 171.859C195.16 172.052 195.378 172.178 195.628 172.235C195.879 172.291 196.148 172.276 196.434 172.187C196.868 172.053 197.166 171.813 197.328 171.467C197.487 171.112 197.492 170.694 197.343 170.211L196.31 166.872L197.415 166.53L198.463 169.918C198.62 170.426 198.651 170.905 198.558 171.355C198.464 171.806 198.263 172.2 197.955 172.537C197.652 172.864 197.252 173.104 196.752 173.259ZM203.806 171.076C203.364 171.213 202.935 171.247 202.52 171.178C202.11 171.099 201.747 170.929 201.433 170.667C201.119 170.406 200.885 170.07 200.732 169.66L200.189 167.905C200.082 167.472 200.085 167.063 200.199 166.678C200.319 166.282 200.527 165.94 200.823 165.651C201.125 165.351 201.492 165.134 201.926 165C202.458 164.835 202.979 164.822 203.488 164.961C204.005 165.096 204.457 165.356 204.845 165.738C205.232 166.12 205.514 166.598 205.692 167.171C205.869 167.743 205.906 168.297 205.802 168.831C205.698 169.366 205.471 169.835 205.121 170.239C204.776 170.633 204.338 170.912 203.806 171.076ZM203.299 170.09C203.668 169.976 203.964 169.79 204.189 169.532C204.414 169.274 204.563 168.972 204.636 168.627C204.706 168.274 204.68 167.901 204.558 167.508C204.439 167.123 204.251 166.805 203.994 166.553C203.736 166.3 203.443 166.136 203.114 166.058C202.783 165.972 202.437 165.985 202.077 166.096C201.709 166.21 201.412 166.396 201.187 166.654C200.96 166.904 200.815 167.204 200.753 167.555C200.691 167.906 200.721 168.278 200.843 168.671C200.962 169.056 201.142 169.376 201.383 169.634C201.629 169.88 201.918 170.046 202.25 170.132C202.589 170.215 202.939 170.201 203.299 170.09ZM200.699 171.903L197.988 163.138L199.092 162.796L200.441 167.154L200.669 168.631L201.318 169.99L201.804 171.561L200.699 171.903ZM207.856 169.689L206.052 163.858L207.157 163.516L208.961 169.347L207.856 169.689ZM206.244 162.521C206.039 162.584 205.851 162.57 205.68 162.48C205.506 162.381 205.387 162.23 205.324 162.025C205.263 161.829 205.278 161.645 205.368 161.473C205.456 161.294 205.603 161.172 205.807 161.109C206.012 161.046 206.201 161.063 206.375 161.162C206.546 161.252 206.663 161.396 206.723 161.592C206.787 161.797 206.774 161.989 206.686 162.168C206.596 162.34 206.449 162.457 206.244 162.521Z" fill="#B9B9B9"/>
<path d="M148.779 150.978L146.12 142.385L147.532 141.948L150.191 150.541L148.779 150.978ZM148.609 146.995L148.211 145.706L152.581 144.354L152.979 145.643L148.609 146.995ZM147.489 143.374L147.09 142.085L151.669 140.668L152.068 141.957L147.489 143.374ZM158.096 148.23C157.506 148.412 156.934 148.446 156.378 148.331C155.828 148.205 155.342 147.952 154.919 147.571C154.505 147.188 154.208 146.706 154.028 146.125C153.848 145.544 153.822 144.983 153.951 144.441C154.076 143.891 154.327 143.41 154.701 142.998C155.084 142.584 155.558 142.289 156.123 142.115C156.671 141.945 157.193 141.922 157.689 142.047C158.193 142.169 158.632 142.414 159.006 142.783C159.389 143.149 159.667 143.614 159.842 144.179C159.872 144.277 159.896 144.382 159.912 144.493C159.934 144.594 159.952 144.709 159.966 144.84L155.129 146.336L154.787 145.231L158.924 143.952L158.557 144.549C158.43 144.194 158.266 143.913 158.068 143.705C157.869 143.498 157.635 143.364 157.365 143.304C157.104 143.241 156.809 143.261 156.482 143.362C156.138 143.468 155.862 143.634 155.654 143.86C155.446 144.086 155.314 144.356 155.259 144.669C155.201 144.974 155.228 145.31 155.342 145.678C155.456 146.047 155.63 146.347 155.863 146.58C156.097 146.812 156.373 146.965 156.691 147.037C157.006 147.1 157.34 147.078 157.692 146.969C157.995 146.875 158.257 146.736 158.477 146.551C158.706 146.364 158.879 146.14 158.996 145.88L160.125 146.485C159.942 146.909 159.673 147.271 159.317 147.569C158.961 147.868 158.554 148.088 158.096 148.23ZM164.653 146.201C164.064 146.383 163.491 146.417 162.936 146.302C162.386 146.176 161.899 145.923 161.477 145.542C161.062 145.16 160.765 144.678 160.585 144.097C160.406 143.516 160.38 142.954 160.508 142.412C160.634 141.862 160.884 141.381 161.259 140.969C161.642 140.555 162.116 140.26 162.68 140.086C163.229 139.916 163.751 139.894 164.247 140.018C164.751 140.14 165.19 140.385 165.564 140.754C165.946 141.12 166.224 141.585 166.399 142.15C166.43 142.248 166.453 142.353 166.47 142.464C166.492 142.565 166.51 142.681 166.523 142.811L161.686 144.307L161.345 143.203L165.481 141.923L165.115 142.52C164.987 142.165 164.824 141.884 164.625 141.676C164.426 141.469 164.192 141.335 163.923 141.275C163.661 141.212 163.367 141.232 163.039 141.333C162.696 141.439 162.42 141.606 162.212 141.831C162.003 142.057 161.872 142.327 161.816 142.64C161.758 142.945 161.786 143.281 161.9 143.65C162.014 144.018 162.187 144.318 162.421 144.551C162.654 144.784 162.93 144.936 163.248 145.008C163.564 145.072 163.898 145.049 164.249 144.94C164.552 144.846 164.814 144.707 165.035 144.522C165.264 144.335 165.437 144.111 165.553 143.851L166.682 144.456C166.5 144.881 166.23 145.242 165.874 145.54C165.518 145.839 165.111 146.059 164.653 146.201ZM170.94 144.255C170.408 144.42 169.884 144.434 169.366 144.298C168.857 144.16 168.405 143.901 168.01 143.521C167.62 143.131 167.336 142.649 167.159 142.076C166.979 141.495 166.941 140.937 167.045 140.403C167.154 139.858 167.38 139.385 167.722 138.983C168.069 138.571 168.509 138.282 169.041 138.118C169.491 137.978 169.919 137.954 170.323 138.044C170.733 138.123 171.093 138.299 171.401 138.571C171.709 138.843 171.929 139.192 172.061 139.618L172.585 141.312C172.717 141.737 172.732 142.15 172.632 142.548C172.539 142.945 172.347 143.296 172.056 143.601C171.762 143.898 171.39 144.116 170.94 144.255ZM170.766 142.91C171.102 142.807 171.37 142.643 171.569 142.42C171.775 142.186 171.906 141.912 171.961 141.599C172.017 141.286 171.99 140.953 171.881 140.602C171.772 140.25 171.607 139.96 171.384 139.733C171.161 139.506 170.9 139.358 170.601 139.289C170.307 139.21 169.993 139.222 169.657 139.326C169.33 139.427 169.063 139.595 168.858 139.829C168.658 140.052 168.526 140.322 168.462 140.637C168.407 140.95 168.433 141.283 168.542 141.635C168.651 141.987 168.817 142.276 169.04 142.503C169.27 142.728 169.533 142.88 169.826 142.959C170.126 143.028 170.439 143.012 170.766 142.91ZM174.057 143.157L172.707 143.574L172.217 141.991L172.006 140.482L171.332 139.131L169.972 134.736L171.323 134.318L174.057 143.157Z" fill="#E4E4E4"/>
<g clip-path="url(#clip4_1_8347)">
<rect x="220.557" y="393.515" width="137.065" height="113.507" rx="21.4163" transform="rotate(-17.1923 220.557 393.515)" fill="#F9F9F9"/>
<path opacity="0.7" d="M393.994 392.536L328.523 412.793" stroke="#FFAA4C" stroke-width="103.147" stroke-linecap="round"/>
<path d="M327.275 398.736C325.631 401.316 319.765 403.269 316.246 402.095" stroke="black" stroke-width="2.14163" stroke-linecap="round" stroke-linejoin="round"/>
<circle cx="301.137" cy="394.925" r="2.67704" transform="rotate(-17.1923 301.137 394.925)" fill="black"/>
<circle cx="323.643" cy="387.961" r="2.67704" transform="rotate(-17.1923 323.643 387.961)" fill="black"/>
<circle cx="303.536" cy="393.622" r="7.49572" transform="rotate(-17.1923 303.536 393.622)" stroke="black" stroke-width="2.14163"/>
<circle cx="326.042" cy="386.659" r="7.49572" transform="rotate(-17.1923 326.042 386.659)" stroke="black" stroke-width="2.14163"/>
<path d="M310.855 391.918L319.039 389.386" stroke="black" stroke-width="2.14163" stroke-linecap="round" stroke-linejoin="round"/>
<path d="M242.016 417.564L240.688 417.262C238.382 416.738 236.086 418.183 235.562 420.49L229.893 445.426C229.369 447.733 230.813 450.028 233.12 450.552L257.795 456.162C260.101 456.686 262.396 455.241 262.921 452.935L268.59 427.998C269.114 425.691 267.669 423.396 265.363 422.872L259.054 421.438M242.016 417.564C242.505 412.989 244.688 404.113 249.511 405.209C254.335 406.305 253.514 415.492 252.501 419.948M242.016 417.564L247.259 418.756M252.501 419.948L247.259 418.756M252.501 419.948L259.054 421.438M247.259 418.756C247.787 414.006 250.324 404.787 256.243 405.912C262.163 407.038 260.584 416.731 259.054 421.438" stroke="black" stroke-width="2.14163" stroke-linecap="round" stroke-linejoin="round"/>
</g>
<path d="M247.828 370.292L247.517 369.286L250.095 368.488C250.586 368.336 250.926 368.074 251.116 367.702C251.303 367.321 251.333 366.926 251.206 366.517C251.12 366.239 250.982 366.008 250.791 365.825C250.597 365.634 250.361 365.509 250.083 365.452C249.814 365.392 249.523 365.41 249.212 365.506L246.598 366.315L246.286 365.309L248.729 364.553C249.138 364.426 249.429 364.22 249.6 363.934C249.777 363.637 249.802 363.284 249.676 362.874C249.549 362.465 249.326 362.193 249.007 362.059C248.685 361.917 248.315 361.91 247.897 362.039L245.504 362.78L245.192 361.773L247.611 361.025C248.167 360.853 248.661 360.812 249.093 360.903C249.53 360.983 249.893 361.157 250.183 361.426C250.48 361.693 250.69 362.023 250.812 362.415C250.953 362.874 250.951 363.314 250.803 363.736C250.664 364.156 250.384 364.539 249.961 364.884L249.946 364.486C250.555 364.512 251.073 364.679 251.5 364.987C251.932 365.283 252.232 365.702 252.399 366.242C252.538 366.692 252.553 367.131 252.444 367.56C252.334 367.988 252.105 368.377 251.756 368.728C251.412 369.067 250.942 369.329 250.345 369.514L247.828 370.292ZM247.055 370.532L244.419 362.012L245.573 361.655L248.209 370.175L247.055 370.532ZM256.889 367.623C256.415 367.77 255.952 367.797 255.502 367.703C255.057 367.599 254.669 367.387 254.337 367.068C254.005 366.749 253.761 366.336 253.604 365.829L252.555 362.441L253.66 362.099L254.693 365.438C254.792 365.757 254.931 366.019 255.111 366.223C255.297 366.417 255.515 366.542 255.765 366.599C256.016 366.656 256.285 366.64 256.571 366.552C257.005 366.417 257.303 366.177 257.465 365.831C257.624 365.477 257.629 365.059 257.48 364.576L256.447 361.237L257.551 360.895L258.6 364.283C258.757 364.79 258.788 365.269 258.695 365.72C258.601 366.17 258.4 366.564 258.092 366.902C257.789 367.228 257.389 367.469 256.889 367.623ZM263.943 365.441C263.501 365.578 263.072 365.612 262.657 365.543C262.247 365.464 261.884 365.293 261.57 365.032C261.256 364.77 261.022 364.435 260.869 364.025L260.326 362.269C260.218 361.836 260.222 361.427 260.336 361.042C260.456 360.646 260.664 360.304 260.96 360.015C261.262 359.716 261.629 359.499 262.063 359.364C262.595 359.2 263.116 359.187 263.625 359.325C264.142 359.461 264.594 359.72 264.982 360.102C265.369 360.485 265.651 360.962 265.828 361.535C266.006 362.108 266.043 362.662 265.939 363.196C265.835 363.73 265.608 364.199 265.258 364.604C264.913 364.997 264.475 365.276 263.943 365.441ZM263.436 364.454C263.805 364.341 264.101 364.155 264.326 363.897C264.551 363.639 264.7 363.337 264.773 362.992C264.843 362.638 264.817 362.265 264.695 361.872C264.576 361.488 264.388 361.169 264.131 360.917C263.873 360.665 263.58 360.5 263.251 360.423C262.92 360.337 262.574 360.35 262.214 360.461C261.846 360.575 261.549 360.761 261.324 361.019C261.097 361.269 260.952 361.569 260.89 361.92C260.828 362.271 260.858 362.643 260.98 363.036C261.099 363.42 261.279 363.741 261.52 363.998C261.766 364.245 262.055 364.411 262.387 364.497C262.726 364.58 263.076 364.566 263.436 364.454ZM260.836 366.268L258.124 357.503L259.229 357.161L260.578 361.519L260.806 362.995L261.455 364.355L261.941 365.926L260.836 366.268ZM270.364 363.454C269.889 363.601 269.427 363.628 268.976 363.534C268.531 363.43 268.143 363.218 267.811 362.899C267.479 362.58 267.235 362.167 267.078 361.66L266.03 358.272L267.135 357.93L268.168 361.269C268.266 361.588 268.406 361.85 268.585 362.054C268.771 362.248 268.989 362.373 269.24 362.43C269.491 362.487 269.759 362.471 270.046 362.383C270.479 362.248 270.777 362.008 270.939 361.662C271.099 361.308 271.104 360.89 270.954 360.407L269.921 357.068L271.026 356.726L272.074 360.114C272.231 360.621 272.263 361.1 272.169 361.551C272.075 362.001 271.874 362.395 271.566 362.733C271.264 363.059 270.863 363.3 270.364 363.454Z" fill="#B9B9B9"/>
<rect opacity="0.7" x="188.022" y="128.961" width="42.8327" height="10.7082" rx="5.35409" transform="rotate(-17.1923 188.022 128.961)" fill="black"/>
<path d="M200.402 324.808L197.766 316.289L198.92 315.932L201.556 324.451L200.402 324.808ZM209.03 322.273C208.588 322.41 208.16 322.444 207.744 322.375C207.334 322.296 206.972 322.126 206.657 321.864C206.343 321.602 206.11 321.267 205.956 320.857L205.413 319.102C205.306 318.668 205.309 318.259 205.423 317.874C205.543 317.479 205.751 317.136 206.047 316.847C206.349 316.548 206.717 316.331 207.15 316.197C207.682 316.032 208.203 316.019 208.712 316.157C209.229 316.293 209.681 316.552 210.069 316.935C210.456 317.317 210.738 317.795 210.916 318.367C211.093 318.94 211.13 319.494 211.026 320.028C210.922 320.562 210.695 321.032 210.345 321.436C210.001 321.829 209.562 322.109 209.03 322.273ZM208.523 321.287C208.892 321.173 209.188 320.987 209.413 320.729C209.638 320.471 209.787 320.169 209.86 319.824C209.93 319.471 209.904 319.097 209.782 318.705C209.663 318.32 209.475 318.002 209.218 317.749C208.961 317.497 208.667 317.332 208.339 317.255C208.007 317.169 207.661 317.182 207.301 317.293C206.933 317.407 206.636 317.593 206.411 317.851C206.184 318.101 206.039 318.401 205.977 318.752C205.915 319.103 205.945 319.475 206.067 319.868C206.186 320.252 206.366 320.573 206.607 320.831C206.853 321.077 207.142 321.243 207.474 321.329C207.813 321.412 208.163 321.398 208.523 321.287ZM205.923 323.1L203.212 314.335L204.316 313.993L205.665 318.351L205.893 319.827L206.542 321.187L207.028 322.758L205.923 323.1ZM215.77 320.188C215.197 320.365 214.64 320.39 214.098 320.261C213.556 320.133 213.079 319.882 212.667 319.507C212.253 319.124 211.957 318.646 211.78 318.073C211.605 317.508 211.583 316.959 211.714 316.426C211.842 315.884 212.094 315.407 212.469 314.995C212.843 314.583 213.317 314.289 213.89 314.111C214.455 313.937 215.008 313.913 215.55 314.042C216.097 314.159 216.577 314.405 216.989 314.78C217.401 315.155 217.694 315.625 217.869 316.189C218.046 316.762 218.072 317.324 217.946 317.874C217.818 318.415 217.562 318.894 217.179 319.308C216.804 319.72 216.335 320.013 215.77 320.188ZM215.44 319.12C215.808 319.006 216.109 318.819 216.342 318.558C216.575 318.298 216.728 317.995 216.801 317.65C216.871 317.296 216.846 316.927 216.727 316.543C216.611 316.166 216.421 315.857 216.158 315.616C215.903 315.372 215.607 315.212 215.27 315.137C214.939 315.051 214.589 315.065 214.22 315.179C213.852 315.293 213.551 315.481 213.318 315.741C213.082 315.993 212.928 316.292 212.856 316.637C212.783 316.983 212.805 317.343 212.922 317.72C213.041 318.105 213.229 318.423 213.486 318.675C213.741 318.919 214.038 319.083 214.378 319.166C214.717 319.249 215.071 319.234 215.44 319.12ZM222.404 318.135C221.929 318.282 221.467 318.309 221.016 318.215C220.571 318.11 220.183 317.899 219.851 317.58C219.52 317.261 219.275 316.848 219.118 316.341L218.07 312.953L219.175 312.611L220.208 315.95C220.307 316.269 220.446 316.531 220.626 316.735C220.811 316.929 221.029 317.054 221.28 317.111C221.531 317.168 221.799 317.152 222.086 317.064C222.519 316.929 222.817 316.689 222.979 316.343C223.139 315.989 223.144 315.57 222.994 315.088L221.961 311.749L223.066 311.407L224.114 314.795C224.271 315.302 224.303 315.781 224.209 316.232C224.115 316.682 223.914 317.076 223.606 317.414C223.304 317.74 222.903 317.981 222.404 318.135ZM229.563 318.597C228.966 318.782 228.399 318.836 227.865 318.759C227.338 318.68 226.873 318.483 226.471 318.168L226.959 317.224C227.29 317.453 227.643 317.595 228.019 317.649C228.397 317.711 228.811 317.673 229.261 317.534C229.858 317.349 230.28 317.044 230.525 316.618C230.78 316.198 230.826 315.722 230.661 315.19L230.213 313.742L230.003 312.368L229.404 311.127L228.929 309.593L230.034 309.251L231.766 314.849C231.938 315.405 231.958 315.933 231.825 316.431C231.701 316.927 231.442 317.366 231.049 317.747C230.664 318.126 230.169 318.41 229.563 318.597ZM228.739 315.933C228.207 316.098 227.689 316.119 227.185 315.997C226.689 315.872 226.25 315.627 225.868 315.261C225.483 314.887 225.204 314.422 225.032 313.865C224.86 313.309 224.83 312.776 224.941 312.266C225.05 311.748 225.274 311.298 225.612 310.915C225.957 310.521 226.395 310.242 226.927 310.078C227.385 309.936 227.818 309.901 228.226 309.972C228.634 310.043 228.99 310.21 229.296 310.475C229.608 310.728 229.839 311.069 229.989 311.498L230.468 313.044C230.575 313.477 230.573 313.891 230.461 314.284C230.356 314.666 230.154 315.002 229.858 315.291C229.562 315.58 229.189 315.794 228.739 315.933ZM228.637 314.821C228.997 314.71 229.288 314.535 229.51 314.296C229.74 314.054 229.886 313.771 229.947 313.448C230.006 313.116 229.977 312.761 229.86 312.385C229.744 312.008 229.565 311.705 229.323 311.475C229.087 311.234 228.81 311.078 228.492 311.006C228.171 310.926 227.827 310.943 227.459 311.057C227.09 311.17 226.792 311.352 226.565 311.602C226.335 311.844 226.182 312.133 226.107 312.47C226.038 312.796 226.06 313.144 226.174 313.512C226.288 313.88 226.467 314.184 226.711 314.422C226.963 314.658 227.254 314.814 227.583 314.892C227.917 314.959 228.269 314.935 228.637 314.821ZM237.584 313.304L236.532 309.904C236.396 309.462 236.144 309.141 235.777 308.94C235.41 308.74 235.006 308.708 234.564 308.845C234.269 308.936 234.027 309.082 233.839 309.284C233.65 309.486 233.526 309.722 233.466 309.991C233.406 310.261 233.421 310.543 233.512 310.838L232.979 310.721C232.842 310.279 232.818 309.856 232.909 309.451C232.999 309.047 233.189 308.692 233.48 308.386C233.769 308.073 234.134 307.848 234.576 307.711C235.018 307.574 235.437 307.552 235.833 307.645C236.238 307.735 236.593 307.926 236.898 308.217C237.203 308.508 237.427 308.882 237.569 309.341L238.689 312.962L237.584 313.304ZM233.46 314.58L230.748 305.815L231.853 305.473L234.565 314.238L233.46 314.58ZM241.009 312.244L238.449 303.97L239.554 303.629L242.114 311.902L241.009 312.244ZM238.08 307.864L237.769 306.858L241.746 305.627L242.058 306.634L238.08 307.864ZM247.186 310.333L245.382 304.502L246.487 304.16L248.291 309.991L247.186 310.333ZM251.126 309.114L250.036 305.591C249.902 305.157 249.662 304.859 249.316 304.697C248.976 304.525 248.605 304.5 248.204 304.624C247.934 304.708 247.71 304.84 247.533 305.02C247.356 305.201 247.233 305.414 247.165 305.659C247.098 305.904 247.108 306.17 247.197 306.456L246.674 306.376C246.538 305.934 246.513 305.52 246.6 305.134C246.695 304.746 246.882 304.41 247.162 304.126C247.439 303.834 247.787 303.624 248.204 303.495C248.613 303.368 249.009 303.344 249.392 303.423C249.784 303.499 250.124 303.672 250.414 303.941C250.711 304.207 250.93 304.566 251.069 305.016L252.231 308.772L251.126 309.114ZM255.067 307.895L253.977 304.372C253.843 303.938 253.603 303.64 253.257 303.478C252.916 303.305 252.55 303.28 252.157 303.401C251.887 303.485 251.659 303.618 251.473 303.801C251.296 303.982 251.174 304.194 251.106 304.439C251.038 304.685 251.049 304.95 251.137 305.237L250.443 305.209C250.328 304.752 250.328 304.33 250.442 303.945C250.562 303.55 250.765 303.209 251.053 302.922C251.339 302.628 251.686 302.417 252.095 302.29C252.521 302.159 252.929 302.131 253.321 302.207C253.712 302.284 254.056 302.455 254.354 302.722C254.66 302.986 254.884 303.347 255.026 303.805L256.184 307.549L255.067 307.895ZM259.618 306.541L255.27 301.443L256.497 301.063L259.8 305.085L259.407 305.207L259.959 299.992L261.186 299.612L260.28 306.335L259.618 306.541ZM258.689 309.451L259.317 305.396L260.28 306.335L259.916 309.071L258.689 309.451ZM265.669 304.749C265.342 304.85 265.018 304.906 264.698 304.915C264.384 304.913 264.08 304.873 263.786 304.794C263.49 304.706 263.218 304.579 262.969 304.414L263.461 303.482C263.755 303.678 264.061 303.798 264.38 303.843C264.696 303.88 265.026 303.845 265.37 303.739C265.713 303.632 265.962 303.493 266.114 303.32C266.265 303.139 266.307 302.942 266.241 302.729C266.175 302.516 266.047 302.377 265.856 302.31C265.671 302.233 265.448 302.194 265.188 302.194C264.925 302.186 264.647 302.187 264.355 302.196C264.067 302.196 263.786 302.171 263.511 302.121C263.235 302.072 262.987 301.965 262.766 301.8C262.553 301.633 262.392 301.374 262.283 301.022C262.174 300.67 262.166 300.34 262.26 300.033C262.35 299.718 262.526 299.444 262.785 299.212C263.053 298.976 263.404 298.792 263.838 298.657C264.296 298.516 264.727 298.472 265.129 298.527C265.537 298.571 265.905 298.717 266.233 298.965L265.742 299.898C265.512 299.736 265.257 299.635 264.976 299.597C264.703 299.555 264.415 299.582 264.113 299.675C263.793 299.774 263.566 299.907 263.429 300.075C263.298 300.232 263.263 300.409 263.324 300.605C263.385 300.802 263.505 300.93 263.686 300.991C263.866 301.052 264.086 301.082 264.346 301.083C264.614 301.08 264.892 301.08 265.179 301.08C265.464 301.073 265.745 301.098 266.023 301.156C266.301 301.213 266.548 301.33 266.763 301.505C266.987 301.678 267.155 301.944 267.266 302.304C267.436 302.853 267.374 303.347 267.08 303.788C266.794 304.226 266.324 304.546 265.669 304.749ZM271.755 302.866C271.174 303.046 270.609 303.077 270.062 302.959C269.512 302.834 269.031 302.583 268.619 302.209C268.207 301.834 267.911 301.356 267.732 300.775C267.554 300.202 267.526 299.646 267.646 299.107C267.774 298.565 268.023 298.093 268.392 297.692C268.767 297.28 269.236 296.987 269.801 296.812C270.341 296.645 270.854 296.621 271.339 296.74C271.832 296.856 272.261 297.096 272.624 297.459C272.995 297.819 273.266 298.274 273.436 298.822C273.461 298.904 273.485 298.995 273.507 299.096C273.527 299.188 273.543 299.3 273.557 299.43L268.634 300.953L268.349 300.032L272.682 298.692L272.388 299.173C272.266 298.78 272.094 298.47 271.871 298.243C271.646 298.008 271.384 297.856 271.084 297.787C270.783 297.71 270.452 297.727 270.092 297.839C269.715 297.955 269.409 298.14 269.173 298.392C268.937 298.644 268.787 298.942 268.723 299.285C268.659 299.627 268.689 299.999 268.813 300.4C268.939 300.809 269.133 301.144 269.392 301.404C269.65 301.657 269.956 301.822 270.312 301.9C270.666 301.97 271.039 301.944 271.432 301.823C271.759 301.721 272.04 301.572 272.275 301.373C272.518 301.173 272.702 300.928 272.827 300.638L273.763 301.142C273.586 301.555 273.32 301.911 272.964 302.209C272.616 302.505 272.213 302.724 271.755 302.866ZM275.597 301.543L272.886 292.778L273.99 292.436L276.702 301.201L275.597 301.543ZM279.153 300.442L277.08 293.74C276.945 293.306 276.923 292.901 277.013 292.523C277.099 292.138 277.278 291.8 277.547 291.51C277.824 291.218 278.184 291.004 278.625 290.867C278.961 290.763 279.269 290.731 279.55 290.769C279.831 290.808 280.108 290.906 280.381 291.064L279.877 292C279.735 291.918 279.59 291.869 279.441 291.852C279.29 291.827 279.12 291.844 278.932 291.902C278.58 292.011 278.338 292.198 278.205 292.464C278.08 292.726 278.073 293.038 278.184 293.398L280.258 300.1L279.153 300.442ZM276.224 296.062L275.913 295.056L280.308 293.696L280.619 294.703L276.224 296.062ZM207.452 339.51C206.92 339.674 206.397 339.693 205.882 339.565C205.365 339.429 204.908 339.171 204.513 338.792C204.126 338.409 203.843 337.932 203.666 337.359C203.489 336.786 203.452 336.232 203.556 335.698C203.668 335.161 203.895 334.692 204.237 334.29C204.587 333.886 205.032 333.6 205.572 333.433C206.014 333.297 206.436 333.269 206.838 333.351C207.245 333.422 207.606 333.589 207.92 333.85C208.232 334.103 208.466 334.439 208.622 334.857L209.165 336.612C209.27 337.037 209.266 337.446 209.155 337.84C209.051 338.23 208.853 338.574 208.559 338.871C208.271 339.158 207.902 339.371 207.452 339.51ZM207.313 338.409C207.862 338.24 208.247 337.919 208.468 337.447C208.687 336.967 208.707 336.436 208.527 335.855C208.403 335.454 208.218 335.13 207.971 334.884C207.73 334.626 207.445 334.459 207.116 334.381C206.785 334.296 206.435 334.31 206.067 334.424C205.698 334.538 205.398 334.725 205.164 334.985C204.939 335.243 204.792 335.549 204.722 335.902C204.658 336.245 204.685 336.609 204.804 336.993C204.925 337.386 205.111 337.71 205.36 337.965C205.615 338.209 205.912 338.372 206.252 338.455C206.591 338.539 206.945 338.523 207.313 338.409ZM209.354 338.787L208.868 337.216L208.636 335.727L207.99 334.38L207.55 332.956L208.667 332.61L210.471 338.441L209.354 338.787ZM216.204 336.667L215.152 333.267C215.015 332.825 214.763 332.504 214.396 332.304C214.03 332.103 213.625 332.072 213.183 332.208C212.889 332.299 212.647 332.446 212.458 332.648C212.27 332.85 212.145 333.085 212.085 333.355C212.025 333.625 212.041 333.907 212.132 334.201L211.598 334.084C211.461 333.642 211.438 333.219 211.528 332.815C211.618 332.41 211.809 332.055 212.1 331.75C212.388 331.436 212.754 331.211 213.196 331.075C213.638 330.938 214.06 330.928 214.464 331.045C214.876 331.16 215.236 331.367 215.544 331.666C215.85 331.957 216.064 332.303 216.188 332.704L217.309 336.326L216.204 336.667ZM212.079 337.944L210.275 332.113L211.38 331.771L213.184 337.602L212.079 337.944ZM224.097 334.36C223.516 334.54 222.951 334.571 222.404 334.453C221.854 334.328 221.373 334.077 220.961 333.703C220.549 333.328 220.253 332.85 220.073 332.269C219.896 331.696 219.868 331.14 219.988 330.601C220.116 330.059 220.365 329.587 220.734 329.186C221.108 328.774 221.578 328.481 222.143 328.306C222.683 328.139 223.196 328.115 223.681 328.234C224.174 328.35 224.602 328.59 224.966 328.953C225.337 329.313 225.608 329.767 225.778 330.316C225.803 330.398 225.827 330.489 225.849 330.59C225.869 330.682 225.885 330.794 225.898 330.924L220.976 332.447L220.691 331.526L225.024 330.186L224.729 330.667C224.608 330.274 224.436 329.964 224.213 329.737C223.988 329.502 223.726 329.35 223.426 329.281C223.125 329.204 222.794 329.221 222.434 329.333C222.057 329.449 221.751 329.634 221.515 329.886C221.279 330.138 221.129 330.436 221.065 330.778C221.001 331.121 221.031 331.493 221.155 331.894C221.281 332.303 221.474 332.638 221.734 332.898C221.992 333.151 222.298 333.316 222.654 333.394C223.008 333.464 223.381 333.438 223.774 333.317C224.101 333.215 224.382 333.066 224.617 332.867C224.859 332.667 225.044 332.421 225.169 332.132L226.105 332.636C225.928 333.049 225.662 333.405 225.306 333.703C224.958 333.999 224.555 334.218 224.097 334.36ZM227.939 333.036L225.227 324.272L226.332 323.93L229.044 332.695L227.939 333.036ZM233.399 331.482C232.818 331.661 232.254 331.693 231.706 331.575C231.156 331.449 230.675 331.199 230.264 330.824C229.852 330.45 229.556 329.972 229.376 329.391C229.199 328.818 229.17 328.262 229.29 327.722C229.419 327.181 229.667 326.709 230.036 326.308C230.411 325.896 230.881 325.603 231.445 325.428C231.986 325.261 232.498 325.237 232.983 325.356C233.477 325.472 233.905 325.712 234.268 326.075C234.64 326.435 234.911 326.889 235.08 327.437C235.106 327.519 235.129 327.611 235.151 327.711C235.171 327.804 235.188 327.915 235.201 328.046L230.279 329.569L229.994 328.648L234.327 327.307L234.032 327.789C233.911 327.396 233.738 327.086 233.516 326.859C233.291 326.624 233.028 326.472 232.729 326.403C232.427 326.326 232.096 326.343 231.736 326.454C231.36 326.571 231.054 326.755 230.818 327.008C230.582 327.26 230.432 327.557 230.368 327.9C230.303 328.243 230.333 328.615 230.457 329.016C230.584 329.425 230.777 329.76 231.037 330.02C231.294 330.272 231.601 330.437 231.957 330.516C232.31 330.586 232.684 330.56 233.076 330.438C233.404 330.337 233.685 330.187 233.919 329.989C234.162 329.788 234.346 329.543 234.472 329.253L235.408 329.757C235.231 330.171 234.964 330.527 234.608 330.825C234.261 331.121 233.858 331.34 233.399 331.482ZM239.944 329.457C239.371 329.634 238.809 329.66 238.259 329.534C237.718 329.406 237.241 329.154 236.829 328.78C236.423 328.394 236.132 327.919 235.957 327.354C235.78 326.781 235.752 326.225 235.872 325.686C236 325.144 236.253 324.671 236.63 324.268C237.013 323.853 237.491 323.558 238.064 323.38C238.514 323.241 238.958 323.198 239.396 323.251C239.831 323.295 240.237 323.434 240.614 323.667L240.105 324.632C239.859 324.475 239.589 324.383 239.294 324.358C239.005 324.322 238.705 324.352 238.394 324.448C238.026 324.562 237.725 324.749 237.492 325.01C237.256 325.262 237.102 325.561 237.029 325.906C236.957 326.252 236.98 326.616 237.099 327.001C237.218 327.386 237.405 327.7 237.66 327.944C237.915 328.188 238.212 328.352 238.552 328.435C238.891 328.518 239.245 328.503 239.613 328.389C239.924 328.293 240.19 328.152 240.411 327.967C240.637 327.772 240.812 327.538 240.934 327.267L241.886 327.78C241.713 328.174 241.456 328.518 241.116 328.812C240.785 329.102 240.394 329.318 239.944 329.457ZM244.072 328.045L241.512 319.771L242.617 319.429L245.177 327.703L244.072 328.045ZM241.143 323.665L240.832 322.658L244.809 321.428L245.121 322.434L241.143 323.665ZM247.695 326.924L245.891 321.093L246.996 320.751L248.8 326.582L247.695 326.924ZM247.771 323.255L247.297 323.2C247.066 322.456 247.055 321.809 247.261 321.261C247.468 320.713 247.895 320.338 248.542 320.138C248.836 320.047 249.119 320.018 249.389 320.051C249.657 320.076 249.93 320.175 250.208 320.349L249.715 321.322C249.552 321.229 249.388 321.177 249.223 321.165C249.058 321.153 248.877 321.178 248.68 321.239C248.271 321.365 247.976 321.6 247.795 321.943C247.615 322.286 247.606 322.723 247.771 323.255ZM252.635 325.396L250.831 319.565L251.935 319.223L253.74 325.054L252.635 325.396ZM251.022 318.228C250.818 318.291 250.63 318.277 250.458 318.187C250.284 318.088 250.166 317.937 250.102 317.732C250.041 317.536 250.056 317.352 250.147 317.18C250.235 317.001 250.381 316.879 250.585 316.816C250.79 316.753 250.979 316.77 251.153 316.869C251.325 316.959 251.441 317.103 251.502 317.299C251.565 317.504 251.553 317.696 251.465 317.875C251.374 318.047 251.227 318.164 251.022 318.228ZM258.07 323.849C257.497 324.026 256.935 324.052 256.385 323.926C255.843 323.798 255.367 323.546 254.955 323.171C254.548 322.786 254.258 322.311 254.083 321.746C253.906 321.173 253.877 320.617 253.998 320.078C254.126 319.536 254.379 319.063 254.756 318.66C255.139 318.245 255.617 317.949 256.189 317.772C256.64 317.633 257.084 317.59 257.521 317.643C257.957 317.687 258.363 317.826 258.74 318.059L258.231 319.024C257.985 318.866 257.715 318.775 257.42 318.75C257.131 318.714 256.831 318.744 256.52 318.84C256.152 318.954 255.851 319.141 255.618 319.402C255.382 319.654 255.228 319.953 255.155 320.298C255.083 320.643 255.106 321.008 255.225 321.393C255.344 321.778 255.531 322.092 255.786 322.336C256.04 322.58 256.338 322.743 256.677 322.827C257.017 322.91 257.371 322.895 257.739 322.781C258.05 322.684 258.316 322.544 258.537 322.359C258.763 322.163 258.938 321.93 259.06 321.659L260.012 322.171C259.838 322.566 259.582 322.91 259.242 323.203C258.91 323.494 258.52 323.709 258.07 323.849ZM265.819 321.451C265.491 321.552 265.168 321.608 264.848 321.617C264.534 321.615 264.23 321.575 263.936 321.495C263.64 321.408 263.368 321.281 263.119 321.116L263.611 320.184C263.905 320.38 264.211 320.5 264.53 320.545C264.846 320.582 265.176 320.547 265.52 320.441C265.863 320.334 266.112 320.195 266.264 320.022C266.415 319.841 266.457 319.644 266.391 319.431C266.325 319.218 266.197 319.079 266.006 319.012C265.82 318.935 265.598 318.896 265.338 318.896C265.075 318.888 264.797 318.889 264.504 318.898C264.217 318.898 263.936 318.873 263.661 318.823C263.385 318.774 263.137 318.667 262.916 318.502C262.703 318.335 262.542 318.075 262.433 317.724C262.324 317.372 262.316 317.042 262.409 316.735C262.5 316.42 262.676 316.146 262.935 315.914C263.203 315.678 263.554 315.494 263.988 315.359C264.446 315.218 264.876 315.174 265.279 315.229C265.687 315.273 266.055 315.419 266.383 315.667L265.891 316.6C265.662 316.437 265.407 316.337 265.126 316.299C264.853 316.257 264.565 316.284 264.262 316.377C263.943 316.476 263.715 316.609 263.579 316.777C263.448 316.934 263.413 317.111 263.474 317.307C263.535 317.504 263.655 317.632 263.836 317.693C264.016 317.754 264.236 317.784 264.496 317.785C264.764 317.782 265.042 317.782 265.329 317.782C265.614 317.775 265.895 317.8 266.173 317.858C266.451 317.915 266.698 318.032 266.913 318.207C267.137 318.38 267.305 318.646 267.416 319.006C267.586 319.555 267.524 320.049 267.23 320.49C266.944 320.928 266.473 321.248 265.819 321.451ZM271.868 319.579C271.295 319.757 270.733 319.782 270.183 319.657C269.641 319.528 269.165 319.277 268.753 318.902C268.347 318.517 268.056 318.042 267.881 317.477C267.704 316.904 267.676 316.348 267.796 315.809C267.924 315.267 268.177 314.794 268.554 314.39C268.937 313.976 269.415 313.68 269.988 313.503C270.438 313.364 270.882 313.32 271.319 313.373C271.755 313.418 272.161 313.557 272.538 313.79L272.029 314.754C271.783 314.597 271.513 314.506 271.218 314.481C270.929 314.445 270.629 314.475 270.318 314.571C269.95 314.685 269.649 314.872 269.416 315.133C269.18 315.385 269.026 315.684 268.953 316.029C268.881 316.374 268.904 316.739 269.023 317.124C269.142 317.508 269.329 317.823 269.584 318.067C269.839 318.311 270.136 318.474 270.475 318.557C270.815 318.641 271.169 318.625 271.537 318.511C271.848 318.415 272.114 318.275 272.335 318.09C272.561 317.894 272.736 317.661 272.858 317.39L273.81 317.902C273.636 318.297 273.38 318.641 273.04 318.934C272.709 319.225 272.318 319.44 271.868 319.579ZM277.754 317.758C277.181 317.935 276.624 317.96 276.082 317.832C275.54 317.703 275.063 317.452 274.651 317.077C274.237 316.694 273.941 316.216 273.764 315.644C273.589 315.079 273.567 314.53 273.698 313.996C273.826 313.454 274.078 312.977 274.452 312.565C274.827 312.154 275.301 311.859 275.874 311.682C276.438 311.507 276.992 311.484 277.533 311.612C278.081 311.73 278.561 311.976 278.973 312.351C279.384 312.725 279.678 313.195 279.852 313.76C280.03 314.333 280.055 314.894 279.93 315.444C279.801 315.986 279.546 316.464 279.163 316.878C278.788 317.29 278.318 317.584 277.754 317.758ZM277.423 316.69C277.792 316.576 278.092 316.389 278.326 316.129C278.559 315.868 278.712 315.565 278.784 315.22C278.854 314.867 278.83 314.498 278.711 314.113C278.594 313.736 278.405 313.427 278.142 313.186C277.887 312.942 277.591 312.783 277.254 312.707C276.922 312.622 276.572 312.636 276.204 312.75C275.836 312.864 275.535 313.051 275.302 313.311C275.066 313.564 274.912 313.862 274.839 314.208C274.767 314.553 274.789 314.914 274.905 315.29C275.024 315.675 275.212 315.993 275.47 316.245C275.725 316.489 276.022 316.653 276.362 316.736C276.701 316.82 277.055 316.804 277.423 316.69ZM284.707 315.607C284.134 315.784 283.577 315.809 283.035 315.68C282.493 315.552 282.016 315.301 281.604 314.926C281.19 314.543 280.894 314.065 280.717 313.492C280.542 312.928 280.52 312.378 280.651 311.845C280.779 311.303 281.031 310.826 281.405 310.414C281.78 310.002 282.254 309.708 282.827 309.53C283.391 309.356 283.945 309.333 284.486 309.461C285.034 309.578 285.514 309.825 285.926 310.199C286.337 310.574 286.631 311.044 286.805 311.608C286.983 312.181 287.008 312.743 286.883 313.293C286.754 313.835 286.499 314.313 286.116 314.727C285.741 315.139 285.271 315.432 284.707 315.607ZM284.376 314.539C284.745 314.425 285.045 314.238 285.279 313.977C285.512 313.717 285.665 313.414 285.737 313.069C285.807 312.715 285.783 312.346 285.664 311.962C285.547 311.585 285.358 311.276 285.095 311.035C284.84 310.791 284.544 310.631 284.207 310.556C283.875 310.47 283.525 310.485 283.157 310.598C282.789 310.712 282.488 310.9 282.255 311.16C282.019 311.412 281.865 311.711 281.792 312.056C281.72 312.402 281.742 312.763 281.858 313.139C281.977 313.524 282.166 313.842 282.423 314.094C282.678 314.338 282.975 314.502 283.315 314.585C283.654 314.668 284.008 314.653 284.376 314.539ZM289.674 313.935L287.114 305.662L288.219 305.32L290.779 313.594L289.674 313.935ZM286.745 309.556L286.434 308.549L290.411 307.318L290.723 308.325L286.745 309.556ZM295.856 312.157C295.275 312.337 294.711 312.368 294.164 312.251C293.614 312.125 293.133 311.875 292.721 311.5C292.309 311.125 292.013 310.647 291.833 310.066C291.656 309.493 291.627 308.937 291.748 308.398C291.876 307.856 292.124 307.385 292.494 306.983C292.868 306.572 293.338 306.278 293.903 306.104C294.443 305.936 294.955 305.912 295.441 306.031C295.934 306.148 296.362 306.387 296.726 306.75C297.097 307.11 297.368 307.565 297.537 308.113C297.563 308.195 297.586 308.286 297.609 308.387C297.628 308.479 297.645 308.591 297.658 308.721L292.736 310.244L292.451 309.324L296.784 307.983L296.489 308.464C296.368 308.071 296.196 307.761 295.973 307.534C295.748 307.299 295.486 307.147 295.186 307.078C294.884 307.001 294.553 307.019 294.193 307.13C293.817 307.246 293.511 307.431 293.275 307.683C293.039 307.935 292.889 308.233 292.825 308.576C292.76 308.918 292.79 309.29 292.914 309.691C293.041 310.1 293.234 310.435 293.494 310.696C293.752 310.948 294.058 311.113 294.414 311.191C294.768 311.261 295.141 311.235 295.534 311.114C295.861 311.012 296.142 310.863 296.377 310.665C296.619 310.464 296.803 310.219 296.929 309.929L297.865 310.433C297.688 310.846 297.422 311.202 297.066 311.501C296.718 311.797 296.315 312.015 295.856 312.157ZM299.699 310.834L297.895 305.003L299 304.661L300.804 310.492L299.699 310.834ZM299.775 307.165L299.3 307.11C299.07 306.365 299.058 305.719 299.265 305.171C299.472 304.622 299.899 304.248 300.545 304.048C300.84 303.957 301.122 303.928 301.393 303.961C301.66 303.986 301.933 304.085 302.211 304.259L301.719 305.232C301.556 305.139 301.391 305.087 301.226 305.075C301.061 305.063 300.881 305.088 300.684 305.149C300.275 305.275 299.98 305.51 299.799 305.853C299.618 306.196 299.61 306.633 299.775 307.165Z" fill="#B9B9B9"/>
<path d="M266.085 105.929L268.617 114.113" stroke="#E4E4E4" stroke-width="1.60623" stroke-linecap="round" stroke-linejoin="round"/>
<path d="M263.259 111.287L271.443 108.755" stroke="#E4E4E4" stroke-width="1.60623" stroke-linecap="round" stroke-linejoin="round"/>
</g>
<g opacity="0.7" clip-path="url(#clip5_1_8347)">
<g clip-path="url(#clip6_1_8347)">
<path d="M355.654 126.5C355.658 127 355.506 127.488 355.219 127.898C354.932 128.307 354.525 128.618 354.054 128.785L344.32 132.32L340.785 142.054C340.612 142.521 340.3 142.923 339.892 143.207C339.483 143.491 338.998 143.644 338.5 143.644C338.002 143.644 337.517 143.491 337.108 143.207C336.7 142.923 336.388 142.521 336.215 142.054L332.68 132.32L322.946 128.785C322.479 128.612 322.077 128.3 321.793 127.892C321.509 127.483 321.356 126.998 321.356 126.5C321.356 126.002 321.509 125.517 321.793 125.108C322.077 124.7 322.479 124.388 322.946 124.215L332.68 120.68L336.215 110.946C336.388 110.479 336.7 110.077 337.108 109.793C337.517 109.509 338.002 109.356 338.5 109.356C338.998 109.356 339.483 109.509 339.892 109.793C340.3 110.077 340.612 110.479 340.785 110.946L344.32 120.68L354.054 124.215C354.525 124.383 354.932 124.693 355.219 125.102C355.506 125.512 355.658 126 355.654 126.5Z" fill="#FFAA4C"/>
</g>
</g>
<g opacity="0.7" clip-path="url(#clip7_1_8347)">
<g clip-path="url(#clip8_1_8347)">
<path d="M375.496 91.5C375.498 91.8204 375.401 92.1336 375.217 92.3961C375.033 92.6586 374.773 92.8574 374.471 92.9649L368.23 95.2305L365.965 101.471C365.854 101.77 365.654 102.028 365.392 102.21C365.13 102.392 364.819 102.49 364.5 102.49C364.181 102.49 363.87 102.392 363.608 102.21C363.346 102.028 363.146 101.77 363.035 101.471L360.77 95.2305L354.529 92.9649C354.23 92.8539 353.972 92.654 353.79 92.3922C353.608 92.1303 353.51 91.819 353.51 91.5C353.51 91.1811 353.608 90.8698 353.79 90.6079C353.972 90.346 354.23 90.1462 354.529 90.0352L360.77 87.7696L363.035 81.5293C363.146 81.2303 363.346 80.9724 363.608 80.7903C363.87 80.6082 364.181 80.5106 364.5 80.5106C364.819 80.5106 365.13 80.6082 365.392 80.7903C365.654 80.9724 365.854 81.2303 365.965 81.5293L368.23 87.7696L374.471 90.0352C374.773 90.1427 375.033 90.3414 375.217 90.6039C375.401 90.8664 375.498 91.1796 375.496 91.5Z" fill="#FFAA4C"/>
</g>
</g>
<defs>
<clipPath id="clip0_1_8347">
<rect x="128.667" y="132.754" width="158.481" height="328.741" rx="26.7704" transform="rotate(-17.1923 128.667 132.754)" fill="white"/>
</clipPath>
<clipPath id="clip1_1_8347">
<rect x="160.42" y="199.151" width="137.065" height="113.507" rx="21.4163" transform="rotate(-17.1923 160.42 199.151)" fill="white"/>
</clipPath>
<clipPath id="clip2_1_8347">
<rect x="151.241" y="169.485" width="25.6996" height="25.6996" rx="12.8498" transform="rotate(-17.1923 151.241 169.485)" fill="white"/>
</clipPath>
<clipPath id="clip3_1_8347">
<rect x="211.378" y="363.849" width="25.6996" height="25.6996" rx="12.8498" transform="rotate(-17.1923 211.378 363.849)" fill="white"/>
</clipPath>
<clipPath id="clip4_1_8347">
<rect x="220.557" y="393.515" width="137.065" height="113.507" rx="21.4163" transform="rotate(-17.1923 220.557 393.515)" fill="white"/>
</clipPath>
<clipPath id="clip5_1_8347">
<rect width="39" height="39" fill="white" transform="translate(319 107)"/>
</clipPath>
<clipPath id="clip6_1_8347">
<rect width="39" height="39" fill="white" transform="translate(319 107)"/>
</clipPath>
<clipPath id="clip7_1_8347">
<rect width="25" height="25" fill="white" transform="translate(352 79)"/>
</clipPath>
<clipPath id="clip8_1_8347">
<rect width="25" height="25" fill="white" transform="translate(352 79)"/>
</clipPath>
</defs>
</svg>
